# xmcd
#
# Track frame offsets: 
#        150
#        19727
#        37334
#        54815
#        74830
#        95156
#        108507
#        132161
#        154993
#        182323
#        204594
#        222286
#        248750
#        270246
#        286972
#        300992
#        318761
#
# Disc length: 4519 seconds
#
# Revision: 1
# Processed by: cddbd v1.5.2PL0 Copyright (c) Steve Scherf et al.
# Submitted via: ExactAudioCopy v0.99pb3
#
DISCID=f011a511
DTITLE=Various Artist - Shades Of Goth (domination edition)
DYEAR=2013
DGENRE=Gothic
TTITLE0=Mentallo and The Fixer - Spectral (angel of death)
TTITLE1=Sara Noxx - Slave Me
TTITLE2=Eisbrecher - Schwarze Witwe
TTITLE3=Megaherz - Perfekte Droge
TTITLE4=In Strict Confidence - Tiefer
TTITLE5=Krystal System - I Love My Chains
TTITLE6=Ien Oblique - Slaves Of Pleasure (kamikaze)
TTITLE7=Noisuf-X - Hit Me Hard (x-fusion)
TTITLE8=Das Ich - Destillat (vnv nation)
TTITLE9=A Spell Inside - Naked
TTITLE10=Mechanical Moth - Black Queen Style
TTITLE11=Acretongue - Voyeur
TTITLE12=Eco - Hass Und Liebe
TTITLE13=Orange Sector - Sexomatic
TTITLE14=Kant Kino - What's Your Porn
TTITLE15=Blind Effects - Bitch
TTITLE16=Aircrash Bureau - Kalt (zdw)
EXTD=
EXTT0=
EXTT1=
EXTT2=
EXTT3=
EXTT4=
EXTT5=
EXTT6=
EXTT7=
EXTT8=
EXTT9=
EXTT10=
EXTT11=
EXTT12=
EXTT13=
EXTT14=
EXTT15=
EXTT16=
PLAYORDER=
